<svg width="22" height="20" viewBox="0 0 22 20" fill="none" xmlns="http://www.w3.org/2000/svg">
<path d="M1.46433 7.34375C1.21579 7.34375 0.988994 7.14229 1.00041 6.87895C1.06733 5.33687 1.25481 4.33298 1.78008 3.53884C2.08228 3.08196 2.45765 2.68459 2.88923 2.36468C4.05575 1.5 5.70139 1.5 8.99266 1.5H13.0074C16.2986 1.5 17.9443 1.5 19.1108 2.36468C19.5424 2.68459 19.9177 3.08196 20.2199 3.53884C20.7452 4.33289 20.9327 5.33665 20.9996 6.87843C21.011 7.14208 20.7839 7.34375 20.5351 7.34375C19.1493 7.34375 18.0259 8.533 18.0259 10C18.0259 11.467 19.1493 12.6562 20.5351 12.6562C20.7839 12.6562 21.011 12.8579 20.9996 13.1216C20.9327 14.6634 20.7452 15.6671 20.2199 16.4612C19.9177 16.918 19.5424 17.3154 19.1108 17.6353C17.9443 18.5 16.2986 18.5 13.0074 18.5H8.99266C5.70139 18.5 4.05575 18.5 2.88923 17.6353C2.45765 17.3154 2.08228 16.918 1.78008 16.4612C1.25481 15.667 1.06733 14.6631 1.00041 13.1211C0.988994 12.8577 1.21579 12.6562 1.46433 12.6562C2.85012 12.6562 3.97352 11.467 3.97352 10C3.97352 8.533 2.85012 7.34375 1.46433 7.34375Z" stroke="#161616" stroke-width="1.5" stroke-linejoin="round"/>
</svg>
